# xmcd CD database file
#
# Track frame offsets:
#	150
#	32357
#	67844
#	118319
#	165799
#	203729
#	236631
#	273808
#
# Disc length: 3837 seconds
#
# Revision: 0
# Processed by: cddbd v1.5.2PL0 Copyright (c) Steve Scherf et al.
# Submitted via: CDex 1.50Beta7
#
DISCID=5c0efb08
DTITLE=Seda Bagcan - Sunrise
DYEAR=1900
DGENRE=New Age
TTITLE0=Wahe Guru Sat Nam
TTITLE1=Ra Ma Da Sa Sa Say So Hung
TTITLE2=Gobinde Muhande Udare Apare
TTITLE3=Guru Ram Das Guru
TTITLE4=Sa Ta Na Ma
TTITLE5=Ad Gurey Nameh
TTITLE6=Wahe guru wahe Jeeo
TTITLE7=May the Long Time
EXTD=
EXTT0=
EXTT1=
EXTT2=
EXTT3=
EXTT4=
EXTT5=
EXTT6=
EXTT7=
PLAYORDER=
